<?xml version="1.0" encoding="UTF-8"?>
<svg width="106px" height="180px" viewBox="0 0 106 180" version="1.1" xmlns="http://www.w3.org/2000/svg" xmlns:xlink="http://www.w3.org/1999/xlink">
    <title>6E98D9B5-9A39-4154-A989-2B89D672DD83</title>
    <g id="To-Do" stroke="none" stroke-width="1" fill="none" fill-rule="evenodd">
        <g id="1280px-–-#2-Done" transform="translate(-1060.000000, -571.000000)" fill="#E8ECF0">
            <path d="M1097.70027,576.658603 L1097.70587,576.715068 C1097.9594,579.454745 1097.90305,582.181067 1097.80392,584.90347 L1097.71469,587.236219 C1097.61291,589.957153 1097.54463,592.676864 1097.77695,595.404789 C1098.11845,599.411812 1098.70582,603.349612 1099.34593,607.285827 L1099.83288,610.238749 C1100.07828,611.716118 1100.32431,613.195642 1100.56077,614.680888 C1101.35376,619.658546 1102.50242,624.555979 1103.72463,629.439087 L1105.20855,635.296156 L1105.20855,635.296156 C1105.61228,636.890914 1106.00174,638.493065 1106.38551,640.098694 L1107.52828,644.922099 C1108.48063,648.943775 1109.45093,652.96272 1110.57309,656.917766 C1110.92559,655.46982 1110.73002,653.807775 1110.50715,652.197518 L1110.386,651.32593 C1110.30761,650.750426 1110.23812,650.188163 1110.20259,649.651925 C1110.1487,648.836565 1110.08198,648.021165 1110.01163,647.20561 L1109.79896,644.758374 C1109.66224,643.126427 1109.54791,641.493414 1109.52973,639.858436 C1109.47142,634.646882 1109.4308,629.338691 1109.72562,624.151378 C1109.75089,623.706774 1109.7733,623.260319 1109.79418,622.812459 L1109.91189,620.111989 L1109.91189,620.111989 L1109.97711,618.755776 C1110.15546,615.363597 1110.47384,611.967414 1111.49655,608.754871 C1112.24082,606.416895 1113.33234,604.135919 1114.40027,601.933563 C1115.27863,600.123109 1115.77845,598.349344 1116.23023,596.512197 L1116.77045,594.270794 C1116.81707,594.080407 1116.86454,593.888987 1116.91317,593.696432 C1117.05207,593.146744 1117.20527,592.600275 1117.36412,592.055052 L1117.84899,590.421146 C1118.25278,589.059382 1118.63787,587.693068 1118.86918,586.291367 L1118.96506,585.718465 L1118.96506,585.718465 L1119.09475,585.023318 L1119.09475,585.023318 L1119.202,584.528725 L1119.202,584.528725 L1119.29421,584.157098 L1119.29421,584.157098 L1119.39707,583.795222 L1119.39707,583.795222 L1119.47181,583.563983 L1119.47181,583.563983 L1119.55166,583.34397 L1119.55166,583.34397 L1119.63677,583.137937 C1119.65141,583.104917 1119.66626,583.072594 1119.68135,583.041026 L1119.77463,582.861134 C1120.20697,582.096517 1120.81049,581.965903 1121.64678,583.599599 C1122.29247,584.860553 1122.3657,586.498118 1122.33471,588.081918 L1122.31471,588.807517 L1122.31471,588.807517 L1122.27934,589.861031 C1122.26967,590.202287 1122.26404,590.531865 1122.26821,590.844475 C1122.30555,593.649915 1121.87609,596.377717 1121.81024,599.171365 L1121.72632,602.824541 C1121.63999,606.476834 1121.53483,610.126603 1121.30631,613.775013 L1121.18128,615.59911 C1120.77504,621.037887 1121.08971,625.94186 1122.0526,631.252759 L1122.21907,632.141838 C1122.93629,635.857048 1123.34912,639.577093 1123.69844,643.312516 L1123.92455,645.805192 L1123.92455,645.805192 L1124.1477,648.303119 C1124.22336,649.136713 1124.30116,649.971299 1124.38375,650.806991 C1124.70315,654.043205 1125.2417,657.261403 1125.5018,660.502204 C1125.51512,660.668289 1125.52054,660.864392 1125.52057,661.084253 L1125.51423,661.553801 L1125.51423,661.553801 L1125.4437,663.535553 C1125.44051,663.637586 1125.43756,663.740174 1125.43495,663.843083 L1125.42405,664.462556 C1125.40966,666.114911 1125.52881,667.731133 1126.16352,668.361957 C1126.24585,666.304066 1126.6794,664.24492 1127.15265,662.211474 L1127.6276,660.187594 C1127.67928,659.963892 1127.73016,659.740618 1127.77983,659.51781 C1128.20478,657.611446 1128.48899,655.650787 1128.75435,653.687736 L1129.07154,651.334248 C1129.17945,650.551583 1129.29215,649.771858 1129.41743,648.998392 C1129.8388,646.395753 1130.44308,643.847194 1131.08689,641.309011 L1132.06436,637.504055 C1132.49604,635.811566 1132.91344,634.113977 1133.27409,632.398337 L1133.57047,630.96539 L1133.57047,630.96539 L1134.57409,626.005258 L1134.57409,626.005258 L1134.89355,624.479011 L1134.89355,624.479011 L1135.11454,623.455776 C1135.15197,623.284945 1135.18973,623.113985 1135.22782,622.942925 L1135.46064,621.915566 L1135.46064,621.915566 L1135.70266,620.887081 L1135.70266,620.887081 L1135.95494,619.858769 L1135.95494,619.858769 L1136.21854,618.831929 C1138.28546,610.968454 1141.44234,603.349297 1147.82248,598.608573 C1148.65045,597.993327 1149.52961,597.478788 1150.4222,596.98162 L1151.49735,596.388022 C1151.67681,596.288701 1151.8562,596.188742 1152.03523,596.087477 C1152.20896,595.989201 1152.40078,595.857502 1152.60408,595.709179 L1153.46288,595.067049 C1153.98133,594.687214 1154.51439,594.338827 1154.97825,594.23531 C1155.99082,594.009276 1156.41307,594.184862 1156.82354,595.359582 C1157.2127,596.47315 1156.85326,597.183186 1156.27612,597.897585 L1156.06424,598.150571 L1156.06424,598.150571 L1155.607,598.673571 L1155.607,598.673571 L1155.37201,598.951555 L1155.37201,598.951555 C1153.42105,601.326044 1152.11481,604.08673 1150.95778,606.924566 L1150.50176,608.063082 L1150.50176,608.063082 L1149.60927,610.347221 L1149.60927,610.347221 L1149.15871,611.484053 C1149.00687,611.861683 1148.85299,612.237754 1148.69588,612.611533 L1148.45767,613.170393 C1143.79577,623.947121 1141.66813,635.299024 1141.54219,646.933712 L1141.53645,647.829241 C1141.52367,654.083826 1141.09224,660.116308 1140.42528,666.332894 L1140.20227,668.350518 C1139.50764,674.431938 1138.55919,680.742616 1136.72979,686.535076 C1136.97689,686.590468 1137.22653,686.629135 1137.47546,686.658537 L1137.84791,686.696625 L1137.84791,686.696625 L1138.75827,686.767771 L1138.75827,686.767771 L1139.10769,686.801289 C1140.25363,686.928715 1141.19817,687.244219 1141.5335,688.680432 C1141.58448,688.898727 1141.58179,689.131947 1141.56645,689.378158 L1141.53103,689.887328 C1141.51704,690.15 1141.51773,690.424373 1141.57412,690.708513 C1141.72022,691.444924 1142.07172,692.177405 1142.27974,692.901696 C1142.70953,694.399743 1142.93687,695.877808 1143.14587,697.416148 C1143.33603,698.814976 1143.55826,700.197717 1143.78888,701.573021 L1144.31192,704.658554 C1144.88657,708.081089 1145.40251,711.49769 1145.48942,715.043511 C1145.59674,719.442378 1144.93944,723.886979 1144.1634,728.252393 L1143.84817,729.99404 L1143.84817,729.99404 L1143.52947,731.725463 L1143.52947,731.725463 C1142.92193,735.027915 1141.63346,738.038017 1140.20607,740.992881 L1139.62899,742.172442 L1139.62899,742.172442 L1138.4612,744.527378 C1138.07405,745.313674 1137.69244,746.102786 1137.32665,746.899212 C1138.31071,746.899212 1139.29445,746.909367 1140.27852,746.919522 C1141.97308,747.101368 1143.68634,747.156322 1145.4043,747.189267 L1147.98301,747.23529 C1149.27237,747.263159 1150.56044,747.308147 1151.8413,747.414503 C1152.02526,747.429762 1152.21858,747.446007 1152.4124,747.46699 L1152.7599,747.510686 L1152.7599,747.510686 L1152.98651,747.547902 L1152.98651,747.547902 L1153.2051,747.593267 L1153.2051,747.593267 L1153.41228,747.64822 C1154.21364,747.889132 1154.65951,748.394742 1153.7711,749.579842 C1153.23963,750.288998 1152.00552,750.436215 1150.82526,750.458213 L1150.35782,750.461369 L1150.35782,750.461369 L1149.28496,750.451585 C1149.15626,750.451616 1149.03479,750.453044 1148.92235,750.456905 L1148.76068,750.46465 C1146.45689,750.611189 1144.06282,750.607477 1141.69651,750.573578 L1138.18263,750.515098 L1138.18263,750.515098 C1137.45342,750.504615 1136.64756,750.287754 1135.9105,750.336564 C1135.05976,750.392581 1134.04097,751.00451 1133.26557,751.001335 C1133.05315,750.99939 1132.9013,750.898731 1132.76195,750.783429 L1132.55631,750.610004 C1132.45218,750.52831 1132.34156,750.462029 1132.2042,750.446632 C1131.30629,750.345736 1130.4087,750.272029 1129.50326,750.272357 C1123.6362,750.273621 1117.80369,750.223801 1111.97879,750.165291 L1100.33117,750.049246 C1098.38893,750.032161 1096.44555,750.01725 1094.50002,750.006085 L1088.656,749.985392 C1082.94246,749.979373 1077.14866,749.892343 1071.41682,749.665268 L1068.77863,749.553113 L1068.77863,749.553113 L1067.16521,749.53162 L1067.16521,749.53162 L1066.29276,749.507495 L1066.29276,749.507495 L1065.58997,749.475723 L1065.58997,749.475723 L1065.10763,749.44605 L1065.10763,749.44605 L1064.61999,749.408349 L1064.61999,749.408349 L1064.132,749.361567 C1063.96982,749.344341 1063.8084,749.325426 1063.64857,749.304646 L1063.17466,749.23653 C1061.38252,748.952616 1059.90878,748.398683 1060.00441,747.307055 C1060.07433,746.506777 1061.11019,746.139341 1062.09996,745.943255 L1062.44573,745.880738 L1062.44573,745.880738 L1062.77778,745.829895 L1062.77778,745.829895 L1063.59278,745.72187 L1063.59278,745.72187 C1064.1439,745.641939 1064.7116,745.636017 1065.27002,745.617892 L1065.6867,745.600664 C1065.87772,745.590427 1066.05756,745.586044 1066.22604,745.584139 L1066.9769,745.579538 L1066.9769,745.579538 L1067.18998,745.570364 L1067.18998,745.570364 L1067.37956,745.55094 C1067.94244,745.469099 1068.14866,745.174582 1067.96854,744.111508 L1067.84896,743.466543 L1067.84896,743.466543 L1067.72494,742.744191 L1067.72494,742.744191 L1067.61173,742.004519 L1067.61173,742.004519 L1067.54301,741.503086 L1067.54301,741.503086 L1067.48023,740.995911 L1067.48023,740.995911 L1067.42384,740.483776 L1067.42384,740.483776 L1067.3743,739.967463 L1067.3743,739.967463 L1067.33205,739.447754 L1067.33205,739.447754 L1067.29755,738.925431 L1067.29755,738.925431 L1067.27126,738.401277 L1067.27126,738.401277 L1067.25363,737.876073 L1067.25363,737.876073 L1067.24511,737.350601 C1067.24448,737.263044 1067.24424,737.175508 1067.24441,737.08801 L1067.25042,736.563604 L1067.25042,736.563604 L1067.26667,736.040885 C1067.27385,735.867014 1067.28281,735.693555 1067.29363,735.520637 L1067.33174,735.003641 L1067.33174,735.003641 L1067.38147,734.49068 C1067.39075,734.405566 1067.40053,734.320652 1067.41082,734.235956 L1067.47881,733.730512 C1067.5531,733.227933 1067.6465,732.734338 1067.76107,732.253247 L1067.88277,731.776454 C1068.95693,727.840086 1071.54787,724.853516 1076.8377,724.853516 C1081.3067,724.853516 1084.69837,725.701972 1087.41449,726.646574 L1088.0536,726.874739 L1088.0536,726.874739 L1088.66799,727.104286 L1088.66799,727.104286 L1089.54596,727.446139 L1089.54596,727.446139 L1091.16012,728.092367 L1091.16012,728.092367 L1091.90464,728.381142 C1091.98528,728.411523 1092.06525,728.441287 1092.14458,728.470387 L1092.61301,728.636624 C1093.68896,729.004102 1094.64882,729.222429 1095.56313,729.159487 C1093.6613,724.589018 1093.30127,719.668635 1093.28986,714.763137 L1093.29358,713.537284 L1093.29358,713.537284 L1093.30768,712.313318 L1093.30768,712.313318 L1093.32802,711.092505 L1093.32802,711.092505 C1093.42508,705.749035 1093.96568,700.445201 1094.63238,695.154722 L1094.8015,693.832366 C1094.96955,692.536111 1095.11598,691.334528 1095.48844,690.078239 L1095.53649,689.924427 L1095.53649,689.924427 L1095.63407,689.652095 L1095.63407,689.652095 L1095.77483,689.318063 L1095.77483,689.318063 L1095.89404,689.051368 C1096.0655,688.649227 1096.07764,688.424426 1095.5829,687.860818 L1095.35714,687.616081 C1095.31473,687.571873 1095.26987,687.525852 1095.22244,687.477867 C1094.48341,686.729744 1093.69186,686.031327 1092.88634,685.344024 L1091.26808,683.972801 C1090.46105,683.283163 1089.66574,682.578911 1088.92068,681.821452 C1088.20453,681.093449 1087.4854,680.391679 1086.76852,679.703473 L1084.10099,677.161526 L1084.10099,677.161526 L1083.05361,676.147088 C1080.8014,673.938577 1078.66961,671.639106 1076.8377,668.813697 L1075.125,666.172717 C1072.45542,662.040516 1069.80819,657.788892 1067.84745,653.314656 C1066.17632,649.50134 1065.18911,645.511372 1064.34444,641.480979 L1064.01289,639.866988 L1064.01289,639.866988 L1063.68884,638.250623 C1063.52741,637.44217 1063.36591,636.633553 1063.2,635.825862 C1063.07122,635.198863 1062.85351,634.552827 1062.60845,633.895795 L1062.10012,632.569454 C1061.54946,631.121865 1061.06316,629.647832 1061.26758,628.229159 C1061.53281,626.389395 1062.13901,626.393712 1062.71827,627.054938 L1062.83761,627.200727 L1062.83761,627.200727 L1062.95546,627.362926 L1062.95546,627.362926 L1063.07109,627.539199 L1063.07109,627.539199 L1063.18378,627.727209 L1063.18378,627.727209 L1063.2928,627.924619 L1063.2928,627.924619 L1063.39744,628.129094 L1063.39744,628.129094 L1063.54458,628.44394 L1063.54458,628.44394 L1063.67777,628.761538 L1063.67777,628.761538 L1063.75761,628.970904 L1063.75761,628.970904 L1063.79457,629.074002 C1065.11776,632.847411 1067.72637,636.333952 1070.41057,639.561736 L1071.17849,640.476943 L1071.17849,640.476943 L1073.07515,642.704309 C1073.19897,642.849947 1073.32205,642.99502 1073.44425,643.13953 C1075.08517,645.079771 1076.88295,646.884211 1078.71634,648.658884 L1081.47798,651.311824 C1083.01023,652.788004 1084.5251,654.28033 1085.95243,655.850166 C1088.25642,658.384635 1090.17616,661.119352 1092.047,663.890217 L1093.91396,666.667053 C1094.95591,668.209681 1096.01726,669.746583 1097.15552,671.249621 C1097.15552,667.664984 1096.46376,664.043299 1095.70228,660.43875 L1095.34814,658.776526 C1094.8754,656.562376 1094.41249,654.357872 1094.10439,652.175642 C1093.6368,648.862379 1093.36167,645.542866 1093.10995,642.219437 L1092.85979,638.89479 C1092.81731,638.340494 1092.77392,637.78611 1092.72882,637.23165 L1092.58767,635.568052 C1091.46897,622.969778 1092.43567,610.00035 1094.00579,597.492162 C1094.44475,593.997791 1094.47905,590.551821 1094.43748,587.093176 L1094.3722,582.932808 C1094.3573,581.88924 1094.3474,580.842334 1094.35139,579.790438 C1094.35219,579.579655 1094.34321,579.338314 1094.32798,579.073498 L1094.29025,578.514665 L1094.29025,578.514665 L1094.18995,577.259575 L1094.18995,577.259575 L1094.13998,576.588505 C1094.01523,574.777085 1093.9811,572.835257 1094.57415,571.837651 C1095.45395,570.357588 1096.16547,571.042436 1096.68721,572.318245 L1096.7961,572.600105 L1096.7961,572.600105 L1096.89913,572.896613 L1096.89913,572.896613 L1096.99626,573.204329 L1096.99626,573.204329 L1097.08744,573.519811 L1097.08744,573.519811 L1097.17262,573.839618 L1097.17262,573.839618 L1097.25175,574.160307 L1097.25175,574.160307 L1097.3917,574.790567 L1097.3917,574.790567 L1097.48044,575.239983 L1097.48044,575.239983 L1097.5551,575.656539 L1097.5551,575.656539 L1097.66156,576.34461 L1097.66156,576.34461 L1097.70027,576.658603 L1097.70027,576.658603 Z M1130.75463,690.752082 C1125.11755,691.120287 1119.44344,691.206442 1113.80897,691.270321 L1111.55362,691.310036 L1111.55362,691.310036 L1107.04781,691.419808 C1106.29937,691.435404 1105.55284,691.447627 1104.80922,691.453442 C1103.44319,691.464252 1102.10763,691.396442 1100.73668,691.263442 C1100.27807,691.219218 1099.83026,691.113736 1099.36836,691.088184 L1098.91582,691.057364 L1098.91582,691.057364 L1098.4662,691.02367 L1098.4662,691.02367 L1098.29633,691.01871 C1098.01402,691.020432 1097.88361,691.088146 1097.77002,691.32927 L1097.70891,691.478634 C1097.69873,691.50661 1097.68849,691.53618 1097.67808,691.567425 L1097.61284,691.775646 L1097.61284,691.775646 L1097.49687,692.171836 L1097.49687,692.171836 C1097.11775,693.470808 1097.09378,694.95699 1097.12727,696.445964 L1097.16889,697.929038 C1097.19041,698.745896 1097.19903,699.544643 1097.14373,700.293657 C1096.92359,703.271243 1096.79199,706.285698 1096.80423,709.27733 L1096.81844,710.557886 C1096.87609,713.709256 1096.76864,716.85342 1096.88625,720.011669 C1096.92924,721.156211 1097.04397,722.115657 1097.30307,723.174423 L1097.42316,723.63509 C1097.45709,723.757891 1097.49131,723.894963 1097.52615,724.043537 L1097.68831,724.78042 L1097.68831,724.78042 L1097.86561,725.616536 L1097.86561,725.616536 L1097.99555,726.201398 C1098.01812,726.299551 1098.04118,726.397813 1098.06478,726.495837 L1098.213,727.078351 C1098.47173,728.035218 1098.79163,728.899071 1099.21407,729.323935 C1099.24167,729.35178 1099.31398,729.356448 1099.41035,729.352118 L1099.75098,729.32631 C1099.99864,729.310013 1100.25988,729.314435 1100.36946,729.453004 C1100.52298,729.647023 1100.59393,729.939454 1100.64743,730.226649 L1100.70742,730.562135 C1100.7474,730.775273 1100.79288,730.958526 1100.87722,731.058827 C1101.29937,731.561138 1101.97485,731.803287 1102.68536,731.990444 L1103.6343,732.22541 C1103.86715,732.28501 1104.0931,732.348632 1104.30409,732.423874 C1107.08283,733.414787 1109.65487,734.482119 1112.26284,735.767961 L1113.13382,736.204863 C1113.40279,736.342076 1113.6888,736.477176 1113.98717,736.612027 L1114.59902,736.881951 L1114.59902,736.881951 L1115.8884,737.433083 L1115.8884,737.433083 L1116.54932,737.720926 C1118.53585,738.601704 1120.51893,739.652676 1121.48921,741.276866 C1121.77591,741.756713 1121.9634,742.297726 1122.12735,742.853405 L1122.36508,743.69211 C1122.52442,744.250829 1122.69807,744.800963 1122.96171,745.296009 C1123.21969,745.780672 1123.21155,746.011637 1123.16445,746.129284 L1123.13626,746.183061 L1123.13626,746.183061 L1123.08947,746.243436 C1123.08346,746.253198 1123.08378,746.260227 1123.09502,746.26737 L1123.13343,746.282653 L1123.13343,746.282653 L1123.50542,746.380958 L1123.50542,746.380958 L1123.88652,746.490941 C1123.93763,746.506364 1123.99183,746.52296 1124.04929,746.540833 C1124.501,746.681278 1125.09891,746.66851 1125.68687,746.627886 L1126.54184,746.561726 C1126.72151,746.549345 1126.89139,746.540833 1127.04571,746.540833 C1127.79496,746.936618 1129.30003,746.87891 1130.33535,746.770788 L1130.77537,746.718773 C1130.84166,746.709997 1130.90405,746.701289 1130.96199,746.692833 C1132.07541,746.530455 1132.511,746.177871 1133.00389,745.508406 L1133.20585,745.22342 L1133.20585,745.22342 L1133.66992,744.544839 L1133.66992,744.544839 L1133.80609,744.351254 C1135.58946,741.843588 1137.03739,739.442061 1138.08665,736.537362 C1139.5663,732.440926 1140.40086,728.274947 1141.09029,724.039426 L1141.37834,722.219945 L1141.37834,722.219945 L1141.79622,719.474757 L1141.79622,719.474757 C1142.37542,715.654887 1141.98699,711.752483 1141.44032,707.87419 L1141.25334,706.582465 L1141.25334,706.582465 L1140.95594,704.585874 C1140.78095,703.404952 1140.61264,702.229126 1140.47423,701.061459 L1140.34666,699.896624 C1140.19957,698.424128 1139.99843,696.965063 1139.76585,695.503706 L1139.74566,695.357456 L1139.74566,695.357456 L1139.70798,694.983465 L1139.70798,694.983465 L1139.6071,693.724131 L1139.6071,693.724131 L1139.55398,693.158605 C1139.45562,692.211801 1139.30281,691.279658 1139.01535,690.90146 C1138.44726,690.154117 1136.81277,690.10113 1135.08429,690.243882 L1134.50599,690.298031 C1134.40947,690.308036 1134.31299,690.318475 1134.21673,690.329261 L1133.36051,690.433412 L1133.36051,690.433412 L1131.79015,690.642632 L1131.79015,690.642632 L1131.33815,690.697595 L1131.33815,690.697595 L1130.9352,690.738331 C1130.87258,690.743707 1130.81233,690.748319 1130.75463,690.752082 Z M1076.12729,728.331543 C1072.06431,728.331543 1069.35697,737.527653 1070.01967,740.764523 C1070.28534,742.06176 1070.85894,744.011875 1071.92458,744.555339 C1072.50676,744.851935 1073.75125,744.841203 1074.9145,744.76535 L1075.48591,744.723118 L1075.48591,744.723118 L1076.71968,744.614206 L1076.71968,744.614206 L1079.26997,744.420885 C1084.76113,744.013529 1090.1918,743.68687 1095.73708,744.067237 C1102.90858,744.558943 1110.58619,744.898649 1117.73901,744.366322 C1118.23891,744.599236 1118.71031,744.568443 1119.15255,744.273288 C1118.13279,743.842571 1117.11959,743.372644 1116.1074,742.889443 L1113.8294,741.790784 C1111.54846,740.691611 1109.25175,739.623718 1106.87636,738.882546 L1106.08157,738.647994 C1104.48781,738.205454 1103.20809,737.550713 1102.01463,736.828772 L1101.37084,736.429193 C1101.26452,736.361776 1101.15856,736.294022 1101.0528,736.226039 L1100.24624,735.704252 C1098.89904,734.833192 1097.51359,733.970028 1095.73708,733.339355 L1095.07679,733.110136 L1095.07679,733.110136 L1093.95372,732.735076 L1093.95372,732.735076 L1092.59602,732.296883 L1092.59602,732.296883 L1091.05031,731.813252 L1091.05031,731.813252 L1089.36321,731.301881 L1089.36321,731.301881 L1088.4812,731.041322 L1088.4812,731.041322 L1087.12652,730.650614 L1087.12652,730.650614 L1085.75131,730.266698 L1085.75131,730.266698 L1084.83281,730.018215 L1084.83281,730.018215 L1083.91975,729.778279 L1083.91975,729.778279 L1083.01796,729.549105 C1082.86893,729.511929 1082.72061,729.475293 1082.57312,729.439244 L1081.69917,729.230358 C1081.5555,729.19684 1081.41291,729.164001 1081.27152,729.131886 L1080.43851,728.948266 L1080.43851,728.948266 L1079.64009,728.784254 C1078.21157,728.502892 1076.98677,728.331543 1076.12729,728.331543 Z M1158.60896,726.777046 C1159.60643,727.475482 1160.53671,728.249482 1161.45954,729.037845 L1162.56719,729.986858 L1162.56719,729.986858 L1163.60852,730.864935 C1164.40612,731.54452 1165.16228,732.240374 1165.78844,733.121307 C1165.20641,733.068125 1164.59732,733.372138 1164.0235,733.716627 L1163.28477,734.172124 C1163.22586,734.207447 1163.16773,734.241531 1163.11046,734.273943 L1162.94133,734.365726 C1162.48284,734.60246 1162.03826,734.863432 1161.59826,735.132624 L1160.28275,735.948839 C1160.06269,736.083646 1159.84145,736.216502 1159.61786,736.345406 C1158.51986,736.978561 1157.38095,737.531546 1156.28322,738.166446 L1154.62193,739.147714 L1154.62193,739.147714 L1154.50671,739.21735 L1154.50671,739.21735 L1154.0693,739.498302 C1153.74869,739.700124 1153.39535,739.898739 1153.16113,739.900691 C1152.54814,739.905824 1152.59308,739.377989 1152.80576,738.808875 L1152.89862,738.580193 L1152.89862,738.580193 L1153.0024,738.354102 L1153.0024,738.354102 L1153.21483,737.937666 L1153.21483,737.937666 L1153.38728,737.615513 L1153.38728,737.615513 L1153.88586,736.567843 L1153.88586,736.567843 L1154.81036,734.707376 C1154.96182,734.396086 1155.10978,734.083103 1155.251,733.7668 C1155.77742,732.587043 1156.31969,731.415492 1156.8675,730.245165 L1157.06783,729.80666 L1157.06783,729.80666 L1157.46289,728.915709 C1157.79581,728.171577 1158.14939,727.433386 1158.60896,726.777046 Z M1158.87042,729.218655 C1158.71155,729.502736 1158.56927,729.799109 1158.4316,730.097694 L1158.0204,730.990012 L1158.0204,730.990012 L1157.75698,731.515458 L1157.75698,731.515458 L1157.1972,732.564798 C1157.0106,732.915488 1156.82886,733.267924 1156.6666,733.624615 L1156.43964,734.163158 C1156.35446,734.384572 1156.25512,734.591323 1156.14965,734.793521 L1155.82297,735.396563 C1155.76815,735.498163 1155.71381,735.601152 1155.66096,735.706793 C1155.37071,736.286893 1155.15664,736.89934 1154.83444,737.464958 L1163.10627,732.241047 L1163.10627,732.241047 L1160.21479,729.764473 L1160.21479,729.764473 L1160.08108,729.641626 L1160.08108,729.641626 L1159.79663,729.361462 C1159.6497,729.220668 1159.49666,729.089582 1159.34184,729.016702 L1159.2175,728.951532 L1159.2175,728.951532 L1159.13805,728.906199 C1159.08572,728.879493 1159.06206,728.883978 1159.02185,728.945972 L1158.87042,729.218655 L1158.87042,729.218655 Z M1096.06892,606.528274 C1095.58504,608.669453 1095.47378,610.929104 1095.4147,613.187706 L1095.36115,615.441531 C1095.34119,616.189738 1095.31516,616.933402 1095.27119,617.668096 L1095.2208,618.399636 C1094.90894,622.367677 1094.93908,626.262665 1095.04293,630.253964 C1095.17112,635.196352 1095.56502,640.098993 1096.01246,645.009739 L1096.52721,650.54027 C1096.58443,651.155714 1096.64124,651.771565 1096.69723,652.387917 C1096.91576,653.967223 1097.19739,655.551905 1097.49498,657.140454 L1098.1653,660.686429 C1098.77281,663.964402 1099.29975,667.253987 1099.33593,670.542037 C1099.33888,670.809281 1099.33218,671.082434 1099.32181,671.358985 L1099.28563,672.196311 C1099.25035,673.0388 1099.23569,673.889237 1099.40276,674.679766 C1099.565,675.44703 1099.92656,676.165758 1100.31237,676.877574 L1100.69977,677.588629 C1100.89103,677.944546 1101.07377,678.302204 1101.2261,678.666806 L1101.90835,680.24822 L1101.90835,680.24822 L1102.16027,680.860028 C1102.18807,680.929637 1102.21573,680.99973 1102.24319,681.070246 L1102.40484,681.497941 C1102.43118,681.56991 1102.45715,681.642182 1102.48271,681.714696 L1102.63033,682.152221 C1103.21927,683.983384 1103.4512,685.89128 1102.19247,686.936696 C1102.16706,685.948785 1101.63294,684.806495 1101.03504,683.730155 L1100.70526,683.150925 L1100.70526,683.150925 L1100.22196,682.323988 C1100.06815,682.059207 1099.92464,681.80678 1099.80045,681.571177 C1098.61492,679.322959 1097.05725,677.267362 1095.77213,675.074834 C1093.082,670.485692 1090.06756,665.994826 1086.60073,661.949148 C1084.75886,659.799593 1082.76379,657.782491 1080.74952,655.783916 L1078.73382,653.787296 C1078.0631,653.121002 1077.39521,652.452547 1076.73511,651.777712 L1075.69985,650.704959 L1075.69985,650.704959 L1075.49072,650.469435 L1075.49072,650.469435 L1075.0958,650.006358 L1075.0958,650.006358 L1073.29181,647.826391 L1073.29181,647.826391 L1069.77843,643.550328 L1069.77843,643.550328 L1068.73836,642.298244 L1068.73836,642.298244 L1067.6353,640.98913 L1067.6353,640.98913 L1066.83483,640.063013 L1066.83483,640.063013 L1066.49949,639.687031 L1066.49949,639.687031 L1066.21478,639.378718 L1066.21478,639.378718 L1065.98619,639.145288 L1065.98619,639.145288 L1065.86771,639.034832 C1065.78085,638.958583 1065.72422,638.922567 1065.7021,638.932353 C1068.37912,649.255874 1072.92994,658.238262 1079.15766,666.881927 C1081.08614,669.558126 1083.25845,671.656366 1085.53379,673.743541 L1087.83827,675.848024 C1088.42037,676.38372 1089.00598,676.930535 1089.59289,677.497327 C1090.08422,677.971858 1090.64454,678.451604 1091.2353,678.942546 L1092.59961,680.068575 L1092.59961,680.068575 L1093.02967,680.428979 L1093.45729,680.794959 L1093.87953,681.166972 L1093.87953,681.166972 L1094.29344,681.545473 C1094.36157,681.609123 1094.42922,681.673062 1094.49635,681.737299 L1094.89227,682.126387 C1096.70558,683.959575 1098.00692,686.041927 1097.45199,688.581829 C1098.19641,688.510264 1098.94009,688.432117 1099.6834,688.351106 L1103.02719,687.979781 C1105.99962,687.65485 1108.97568,687.373367 1111.98039,687.373367 L1111.82202,686.138666 L1111.82202,686.138666 L1111.35909,682.448557 C1110.84295,678.35898 1110.29107,674.301753 1109.40518,670.248924 L1109.12909,669.033179 C1108.31537,665.582232 1107.63293,662.079691 1106.98177,658.569492 L1105.82187,652.252354 C1105.56203,650.850926 1105.29759,649.452491 1105.02216,648.059861 C1103.61681,640.951261 1101.23298,634.069349 1099.75,626.97418 C1098.32992,620.180062 1097.10999,613.398065 1096.06892,606.528274 Z M1118.61989,599.628674 C1117.87791,601.24629 1117.70495,603.316301 1117.0311,605.01352 C1116.35792,606.709101 1115.45738,608.324424 1114.81139,610.031799 C1113.41194,613.730564 1112.92908,617.915793 1112.77839,621.848126 C1112.43737,630.742721 1112.26113,639.617333 1112.85898,648.511928 C1113.11515,652.324365 1113.3117,656.143354 1113.2416,659.963326 C1113.22539,660.84822 1113.18407,661.708519 1113.13621,662.554257 L1113.02536,664.436832 C1112.88377,666.92546 1112.80887,669.350782 1113.30253,671.983739 C1113.99891,675.699146 1114.46232,679.400754 1114.73598,683.157342 L1114.869,685.137741 L1114.869,685.137741 L1114.90976,685.588402 L1114.90976,685.588402 L1114.94193,685.847459 L1114.94193,685.847459 L1114.97996,686.07548 C1115.11827,686.78579 1115.38095,687.008395 1116.03473,687.039038 L1116.24286,687.042767 L1116.24286,687.042767 L1116.47606,687.036753 L1116.47606,687.036753 L1116.87636,687.013346 L1116.87636,687.013346 L1117.87857,686.936696 L1117.87857,686.936696 C1118.74634,686.872677 1119.61778,686.865396 1120.48998,686.870682 L1122.23453,686.884922 C1122.8158,686.886529 1123.39655,686.880632 1123.97591,686.854145 C1123.69708,683.484256 1123.48685,680.112327 1123.29046,676.740674 L1122.94008,670.672499 C1122.58098,664.605624 1122.16026,658.54415 1121.3585,652.501589 C1121.06128,650.26204 1120.87533,648.010037 1120.7044,645.756389 L1120.50035,643.051916 C1120.2912,640.348036 1120.04826,637.648017 1119.60527,634.970536 C1119.1283,632.088769 1118.32801,629.264984 1117.86808,626.379941 C1117.52631,624.235416 1117.53765,622.080844 1117.59264,619.922201 L1117.63237,618.482568 C1117.6455,618.002533 1117.6574,617.522363 1117.66465,617.042123 C1117.67825,615.455464 1117.83876,613.879533 1118.01959,612.304544 L1118.23823,610.414383 C1118.30896,609.784062 1118.37483,609.153266 1118.42775,608.521368 L1118.51161,607.385999 L1118.51161,607.385999 L1118.77256,604.986156 L1118.77256,604.986156 L1118.87416,603.913388 L1118.87416,603.913388 L1118.91832,603.366135 L1118.91832,603.366135 L1118.95528,602.823572 L1118.95528,602.823572 L1118.98295,602.294651 L1118.98295,602.294651 L1118.99925,601.788326 C1119.02239,600.640222 1118.93565,599.749749 1118.61989,599.628674 Z M1148.77248,602.710923 C1146.91528,603.692696 1145.59107,605.520186 1144.4788,607.426137 L1144.11545,608.063308 C1144.05605,608.169637 1143.9972,608.275944 1143.93884,608.3821 L1143.59408,609.016148 L1143.59408,609.016148 L1143.09318,609.946544 L1143.09318,609.946544 L1142.7662,610.543814 L1142.7662,610.543814 C1140.84721,613.998201 1139.56897,617.823086 1138.78538,621.701041 C1137.27358,629.182105 1135.61534,636.685773 1133.87095,644.154389 C1133.22221,646.931727 1132.66896,649.718174 1132.13093,652.504328 L1131.48748,655.846972 C1130.73334,659.745154 1129.94615,663.635393 1128.90574,667.49189 L1128.23182,669.967568 L1128.23182,669.967568 L1127.88765,671.263532 C1127.20618,673.882909 1126.58926,676.644388 1126.45713,679.141182 L1126.42787,679.978567 L1126.42787,679.978567 L1126.40264,680.468841 L1126.40264,680.468841 L1126.30728,681.914537 L1126.30728,681.914537 L1126.27345,682.542268 C1126.21109,683.914404 1126.23534,685.330403 1126.64639,686.11806 C1127.06489,686.920392 1127.79527,686.996377 1128.6427,686.905143 L1128.96559,686.864184 L1128.96559,686.864184 L1129.80585,686.736201 L1129.80585,686.736201 L1130.14917,686.691973 C1130.20651,686.68557 1130.26388,686.679743 1130.32124,686.674628 L1131.17571,686.654533 L1131.17571,686.654533 L1132.8731,686.557711 C1133.15624,686.544351 1133.44001,686.535404 1133.72518,686.535404 C1133.35645,684.813747 1133.67694,682.808656 1134.1262,680.838555 L1134.32499,679.997296 L1134.32499,679.997296 L1134.73066,678.349913 C1134.89376,677.677905 1135.04266,677.027766 1135.15181,676.414002 C1135.76243,672.981237 1136.22727,669.431523 1136.63446,665.97124 C1137.49273,658.682795 1137.88158,651.482799 1137.89271,644.140958 C1137.9032,637.036617 1139.1965,630.544532 1141.00805,623.715035 C1142.19678,619.232758 1143.84869,615.026356 1145.55483,610.818235 L1146.48836,608.521057 C1147.2667,606.603819 1148.04087,604.675798 1148.77248,602.710923 Z M1075.84921,599.282081 C1080.0375,599.897689 1083.92543,602.887593 1085.33626,606.914393 C1086.79076,611.06543 1085.45429,615.62926 1081.60368,617.903743 C1073.82175,622.500756 1063.42087,614.839775 1065.29907,606.034385 C1065.77596,603.79866 1067.13016,602.067314 1068.96998,600.758318 C1070.73621,599.501411 1072.82382,599.307759 1074.91106,599.28421 L1075.84921,599.282081 L1075.84921,599.282081 Z M1073.49751,601.321522 C1070.07601,602.010329 1066.95368,603.555053 1066.40557,607.406805 C1065.9074,610.907319 1068.28777,614.145824 1071.21085,615.784417 C1074.37232,617.55711 1078.33368,617.851613 1081.48383,615.887055 C1084.80002,613.818827 1085.55229,609.674119 1083.53389,606.422463 C1081.28173,602.79378 1077.50882,601.722789 1073.49751,601.321522 Z M1138.40144,575.001335 C1138.98475,575.53383 1138.94435,576.078519 1138.77728,576.687014 L1138.55657,577.420375 L1138.55657,577.420375 L1138.52145,577.530507 L1138.52145,577.530507 L1138.41562,577.816878 L1138.41562,577.816878 L1138.12423,578.56651 C1137.86689,579.247789 1137.62293,580.001054 1137.76477,580.305225 C1137.93205,580.663895 1138.47021,580.860304 1138.9949,581.000822 L1139.65275,581.164398 C1139.74982,581.189253 1139.83778,581.213683 1139.91242,581.238854 C1140.72488,581.51286 1141.54043,581.787912 1142.32365,582.140242 L1142.89266,582.4096 L1142.89266,582.4096 L1143.92065,582.826232 C1144.37563,583.018255 1144.81403,583.232558 1144.95244,583.424613 C1145.11105,583.644823 1145.16879,583.81727 1145.04959,584.101079 C1144.92394,584.400022 1144.76617,584.424667 1144.54985,584.373476 L1144.13054,584.251968 C1144.09837,584.243723 1144.06529,584.235904 1144.03127,584.228781 C1141.69949,583.740096 1139.38753,583.115163 1137.22501,582.0845 C1136.62205,583.504049 1136.11153,584.953764 1135.60151,586.410266 L1135.54107,586.606541 L1135.54107,586.606541 L1135.43831,586.964636 C1135.30968,587.383586 1135.12007,587.829983 1134.74156,587.87607 C1134.16454,587.946037 1134.06183,587.304457 1134.0703,586.794939 L1134.07875,586.600175 C1134.08086,586.569554 1134.08325,586.540021 1134.08581,586.511824 C1134.12763,586.048655 1134.29124,585.566337 1134.46384,585.098441 L1134.66807,584.546038 C1134.70043,584.455841 1134.73133,584.366758 1134.7599,584.279057 C1134.78891,584.189952 1134.82912,584.086014 1134.87609,583.971744 L1135.11817,583.402963 C1135.34739,582.862382 1135.57858,582.26447 1135.5284,581.897221 C1135.49292,581.635831 1135.38006,581.552385 1135.18931,581.484671 L1134.9011,581.393511 C1134.8643,581.381508 1134.82591,581.368407 1134.78592,581.353735 L1133.53911,580.895719 L1133.53911,580.895719 C1133.03968,580.710388 1132.54179,580.524633 1132.05065,580.319683 L1131.43023,580.052843 L1131.43023,580.052843 L1130.93436,579.866622 C1130.64095,579.750815 1130.34768,579.610351 1130.20463,579.424888 C1130.05519,579.231325 1129.88865,578.533742 1130.07724,578.340681 C1130.27123,578.141698 1130.94755,578.265915 1131.69556,578.481593 L1132.1082,578.606914 L1132.1082,578.606914 L1132.52026,578.742018 L1132.52026,578.742018 L1133.86638,579.213131 L1133.86638,579.213131 L1134.05335,579.271797 L1134.05335,579.271797 L1134.65284,579.428533 C1134.85184,579.481449 1135.04936,579.538638 1135.2434,579.61091 L1135.33448,579.661058 L1135.33448,579.661058 L1135.528,579.808882 C1135.59369,579.856459 1135.65965,579.894166 1135.72319,579.897485 C1136.17291,579.920612 1136.34661,579.69448 1136.47441,579.373941 L1136.54743,579.171528 L1136.54743,579.171528 L1136.62048,578.95389 L1136.62048,578.95389 L1136.66047,578.841684 C1137.14645,577.530229 1137.67407,576.192378 1138.40144,575.001335 Z" id="illustration_02"></path>
        </g>
    </g>
</svg>